<?xml version="1.0" encoding="UTF-8" standalone="no"?>
<!-- Created with Inkscape (http://www.inkscape.org/) -->

<svg
   width="1024"
   height="1024"
   viewBox="0 0 1024 1024"
   version="1.1"
   id="svg5"
   inkscape:version="1.1 (1:1.1+202105261517+ce6663b3b7)"
   sodipodi:docname="ki206.svg"
   inkscape:export-filename="/home/delta/Aircraft/DA40/Models/Interior/Panel/Instruments/ki206/ki206.png"
   inkscape:export-xdpi="96"
   inkscape:export-ydpi="96"
   xmlns:inkscape="http://www.inkscape.org/namespaces/inkscape"
   xmlns:sodipodi="http://sodipodi.sourceforge.net/DTD/sodipodi-0.dtd"
   xmlns:xlink="http://www.w3.org/1999/xlink"
   xmlns="http://www.w3.org/2000/svg"
   xmlns:svg="http://www.w3.org/2000/svg">
  <sodipodi:namedview
     id="namedview7"
     pagecolor="#000000"
     bordercolor="#666666"
     borderopacity="1.0"
     inkscape:pageshadow="2"
     inkscape:pageopacity="1"
     inkscape:pagecheckerboard="true"
     inkscape:document-units="px"
     showgrid="false"
     units="px"
     showguides="true"
     inkscape:guide-bbox="true"
     inkscape:zoom="2"
     inkscape:cx="890.5"
     inkscape:cy="870.75"
     inkscape:window-width="1680"
     inkscape:window-height="991"
     inkscape:window-x="0"
     inkscape:window-y="0"
     inkscape:window-maximized="1"
     inkscape:current-layer="g131031">
    <sodipodi:guide
       position="0,1024"
       orientation="-1,0"
       id="guide824"
       inkscape:label=""
       inkscape:locked="false"
       inkscape:color="rgb(0,0,255)" />
    <sodipodi:guide
       position="512,512"
       orientation="-1,0"
       id="guide826"
       inkscape:label=""
       inkscape:locked="true"
       inkscape:color="rgb(0,0,255)" />
    <sodipodi:guide
       position="1024,0"
       orientation="-1,0"
       id="guide828"
       inkscape:label=""
       inkscape:locked="false"
       inkscape:color="rgb(0,0,255)" />
    <sodipodi:guide
       position="0,1024"
       orientation="0,-1"
       id="guide830" />
    <sodipodi:guide
       position="512,512"
       orientation="0,-1"
       id="guide832" />
    <sodipodi:guide
       position="1024,0"
       orientation="0,-1"
       id="guide834" />
    <sodipodi:guide
       position="541.20471,676.54225"
       orientation="0,-1"
       id="guide127536" />
  </sodipodi:namedview>
  <defs
     id="defs2">
    <linearGradient
       inkscape:collect="always"
       id="linearGradient132630">
      <stop
         style="stop-color:#000000;stop-opacity:0.00185314"
         offset="0"
         id="stop132626" />
      <stop
         style="stop-color:#000000;stop-opacity:0"
         offset="0.85844064"
         id="stop133002" />
      <stop
         style="stop-color:#000000;stop-opacity:1"
         offset="1"
         id="stop132628" />
    </linearGradient>
    <linearGradient
       inkscape:collect="always"
       id="linearGradient131165">
      <stop
         style="stop-color:#333333;stop-opacity:0.99101824"
         offset="0"
         id="stop131161" />
      <stop
         style="stop-color:#333333;stop-opacity:0"
         offset="1"
         id="stop131163" />
    </linearGradient>
    <linearGradient
       inkscape:collect="always"
       id="linearGradient119882">
      <stop
         style="stop-color:#2d2d2d;stop-opacity:1"
         offset="0"
         id="stop119878" />
      <stop
         style="stop-color:#030100;stop-opacity:1"
         offset="1"
         id="stop119880" />
    </linearGradient>
    <radialGradient
       inkscape:collect="always"
       xlink:href="#linearGradient119882"
       id="radialGradient119884"
       cx="135.67166"
       cy="871.04309"
       fx="135.67166"
       fy="871.04309"
       r="61.940918"
       gradientUnits="userSpaceOnUse" />
    <radialGradient
       inkscape:collect="always"
       xlink:href="#linearGradient131165"
       id="radialGradient131690"
       cx="512"
       cy="512"
       fx="512"
       fy="512"
       r="234.37109"
       gradientUnits="userSpaceOnUse" />
    <radialGradient
       inkscape:collect="always"
       xlink:href="#linearGradient132630"
       id="radialGradient133229"
       cx="512"
       cy="512"
       fx="512"
       fy="512"
       r="290.1434"
       gradientUnits="userSpaceOnUse" />
    <filter
       inkscape:collect="always"
       style="color-interpolation-filters:sRGB"
       id="filter134587"
       x="-0.0087323566"
       y="-0.0097295339"
       width="1.0174647"
       height="1.0194591">
      <feGaussianBlur
         inkscape:collect="always"
         stdDeviation="1.7808438"
         id="feGaussianBlur134589" />
    </filter>
    <radialGradient
       inkscape:collect="always"
       xlink:href="#linearGradient4600"
       id="radialGradient4602"
       cx="1012"
       cy="223.53333"
       fx="1012"
       fy="223.53333"
       r="12"
       gradientUnits="userSpaceOnUse" />
    <linearGradient
       inkscape:collect="always"
       id="linearGradient4600">
      <stop
         style="stop-color:#454545;stop-opacity:1"
         offset="0"
         id="stop4596" />
      <stop
         style="stop-color:#2c2c2c;stop-opacity:1"
         offset="1"
         id="stop4598" />
    </linearGradient>
    <filter
       inkscape:collect="always"
       style="color-interpolation-filters:sRGB"
       id="filter4954"
       x="-0.1247264"
       y="-0.40580985"
       width="1.2494528"
       height="1.8116197">
      <feGaussianBlur
         inkscape:collect="always"
         stdDeviation="0.8421368"
         id="feGaussianBlur4956" />
    </filter>
  </defs>
  <g
     inkscape:label="Ebene 1"
     inkscape:groupmode="layer"
     id="layer1">
    <circle
       style="opacity:1;fill:#1d1d1d;fill-opacity:1;fill-rule:evenodd;stroke:none;stroke-width:4;stroke-linecap:round;stroke-linejoin:round;stroke-miterlimit:4;stroke-dasharray:none;stroke-opacity:1"
       id="path129584"
       cx="512"
       cy="512"
       r="512" />
    <rect
       style="opacity:1;fill:#ff7611;fill-opacity:1;fill-rule:evenodd;stroke:none;stroke-width:4.27574;stroke-linecap:round;stroke-linejoin:round;stroke-miterlimit:4;stroke-dasharray:none;stroke-opacity:1"
       id="rect75211"
       width="133.38504"
       height="112.7421"
       x="890.61493"
       y="0" />
    <g
       id="g131031"
       transform="matrix(1.095367,0,0,1.095367,-48.827898,-48.827898)">
      <path
         id="circle130040"
         style="opacity:1;fill:#171717;fill-opacity:1;fill-rule:evenodd;stroke:none;stroke-width:3.22381;stroke-linecap:round;stroke-linejoin:round;stroke-miterlimit:4;stroke-dasharray:none;stroke-opacity:1"
         d="M 512,99.351562 A 412.64798,412.64798 0 0 0 99.351562,512 412.64798,412.64798 0 0 0 512,924.64844 412.64798,412.64798 0 0 0 924.64844,512 412.64798,412.64798 0 0 0 512,99.351562 Z m 0,144.662108 A 267.98575,267.98575 0 0 1 779.98633,512 267.98575,267.98575 0 0 1 512,779.98633 267.98575,267.98575 0 0 1 244.01367,512 267.98575,267.98575 0 0 1 512,244.01367 Z" />
      <path
         id="path133496"
         style="font-weight:bold;font-size:66.3562px;line-height:100%;font-family:'Liberation Sans';-inkscape-font-specification:'Liberation Sans Bold';text-align:center;letter-spacing:0px;word-spacing:0px;text-anchor:middle;mix-blend-mode:normal;fill:#000000;fill-opacity:1;stroke:#000000;stroke-width:4.56468;stroke-miterlimit:4;stroke-dasharray:none;stroke-opacity:1;filter:url(#filter134587)"
         d="m -100.24203,317.10676 q 0,3.11045 -1.03681,5.60528 -1.00442,2.46244 -3.04565,4.21207 -2.04123,1.74962 -5.08688,2.68924 -3.01324,0.90721 -7.0309,0.90721 -4.47127,0 -7.54932,-1.13402 -3.04564,-1.13401 -5.02207,-2.98084 -1.94403,-1.87923 -2.94845,-4.24447 -0.97201,-2.36523 -1.26362,-4.79527 l 9.26654,-0.81001 q 0.19441,1.45802 0.71281,2.68924 0.55081,1.19882 1.45803,2.07363 0.90721,0.87481 2.20323,1.36082 1.32842,0.45361 3.11045,0.45361 3.27245,0 5.08687,-1.62003 1.81443,-1.62002 1.81443,-4.95727 0,-2.04123 -0.87481,-3.27245 -0.84242,-1.23122 -2.17084,-1.87923 -1.29602,-0.68041 -2.81884,-0.90721 -1.52282,-0.2268 -2.88364,-0.2268 h -3.17525 v -7.35492 h 2.98085 q 1.36082,0 2.75404,-0.2592 1.42562,-0.2592 2.55964,-0.93961 1.13401,-0.68041 1.84682,-1.87923 0.71281,-1.23122 0.71281,-3.11045 0,-2.81884 -1.58762,-4.40647 -1.55522,-1.62002 -4.56847,-1.62002 -2.81884,0 -4.56847,1.55522 -1.71722,1.55523 -1.97643,4.40647 l -9.10454,-0.64801 q 0.38881,-3.20765 1.74963,-5.57288 1.39322,-2.36524 3.46685,-3.92046 2.10604,-1.55523 4.82768,-2.30044 2.72164,-0.77761 5.76728,-0.77761 4.01766,0 6.90131,0.97201 2.88364,0.97202 4.73047,2.62444 1.84683,1.65243 2.72164,3.85566 0.87481,2.20324 0.87481,4.69807 0,2.00883 -0.58321,3.75846 -0.5832,1.71723 -1.78202,3.11045 -1.16642,1.36082 -3.01325,2.36523 -1.84683,0.97202 -4.37406,1.45802 v 0.12961 q 2.81884,0.324 4.89247,1.29602 2.07363,0.93961 3.40205,2.36523 1.32842,1.42562 1.97643,3.24005 0.64801,1.78203 0.64801,3.79086 z m 168.05987,45.87653 q -1.91332,2.97432 -4.36159,5.03543 -2.4302,2.03305 -5.26899,2.95648 -2.79269,0.9099 -5.9398,0.626 -3.12907,-0.31196 -6.41205,-2.01312 -6.98685,-3.62044 -7.6061,-10.45116 -0.57314,-6.84425 5.61807,-16.4687 6.80493,-10.57849 14.02252,-13.94694 7.2637,-3.38196 14.33473,0.28209 2.35701,1.22135 3.96823,2.72967 1.62926,1.48026 2.44052,3.35975 0.81126,1.87948 0.75841,4.17169 -0.0348,2.26415 -0.97784,5.06781 l -8.10366,-2.81485 q 0.77452,-2.36721 0.0894,-3.91942 -0.66702,-1.58026 -2.3506,-2.45266 -3.17074,-1.643 -7.03429,0.58265 -3.8355,2.24019 -7.98704,8.6939 2.61645,-1.45018 5.58323,-1.40937 2.96678,0.0408 5.8008,1.50933 2.60955,1.35221 4.15446,3.31255 1.59104,1.94682 2.03128,4.34489 0.48636,2.38456 -0.19808,5.13516 -0.68443,2.75061 -2.56165,5.66882 z m -8.05723,-3.87578 q 1.02886,-1.59939 1.47635,-3.0511 0.46554,-1.47976 0.28553,-2.77024 -0.15195,-1.27595 -0.93942,-2.32002 -0.76942,-1.07213 -2.20046,-1.81367 -1.03821,-0.53797 -2.29302,-0.73923 -1.2548,-0.20126 -2.55589,0.1347 -1.28303,0.30789 -2.52817,1.19662 -1.24513,0.88872 -2.29204,2.51618 -1.08302,1.68358 -1.60073,3.36078 -0.51772,1.6772 -0.46406,3.16411 0.0998,1.47338 0.79698,2.65775 0.71527,1.15631 2.09019,1.86876 2.66567,1.38129 5.3622,0.27191 2.71457,-1.13745 4.86254,-4.47655 z m 147.71214,263.34315 h 7.0396 q 3.7905,1.39583 6.8229,3.40234 3.0686,2.00651 5.5956,4.18748 2.5631,2.21007 4.7291,4.36197 2.2022,2.18098 4.2238,3.89669 2.0577,1.74479 4.1154,2.82074 2.0578,1.07595 4.3682,1.07595 3.3934,0 5.018,-1.36675 1.6245,-1.36675 1.6245,-4.01301 0,-2.61718 -1.7689,-4.01301 -1.7329,-1.36674 -5.2346,-1.77386 l 0.5776,-8.22958 q 2.9963,0.2908 5.6317,1.19227 2.6353,0.90148 4.6208,2.55902 1.9855,1.68663 3.1046,4.18749 1.1553,2.52994 1.1553,6.01952 0,3.31508 -0.9747,5.8741 -0.9387,2.55903 -2.7798,4.30381 -1.8411,1.74479 -4.5125,2.64626 -2.6354,0.90148 -6.0288,0.90148 -3.5739,0 -6.462,-1.13412 -2.888,-1.13411 -5.3428,-2.90797 -2.4188,-1.77387 -4.5487,-3.95486 -2.1299,-2.15189 -4.1515,-4.18748 -2.0217,-2.03558 -4.0794,-3.72221 -2.0577,-1.65755 -4.4042,-2.47178 v 19.01817 h -8.3392 z m 0,-31.43523 h 7.545 v 10.14884 h 34.6924 l -7.6171,-9.82896 h 7.9782 l 8.267,10.26516 v 7.73522 h -43.3205 v 9.39276 h -7.545 z m -46.2514,209.51493 q -3.314,-1.71722 -5.5769,-4.03149 -2.2479,-2.27289 -3.2421,-5.00424 -0.9629,-2.71514 -0.5321,-5.78257 0.4459,-3.02604 2.5196,-6.24957 1.9116,-2.97169 4.2126,-4.73425 2.3323,-1.74638 4.8837,-2.47258 2.5665,-0.68482 5.2594,-0.46463 2.6768,0.24537 5.326,1.18159 l -3.8332,7.44926 q -1.1614,-0.33313 -2.3573,-0.48277 -1.2122,-0.12445 -2.3838,0.14152 -1.1715,0.26598 -2.2561,0.97996 -1.0533,0.73018 -1.9281,2.09011 -1.701,2.6443 -0.6107,5.29111 1.074,2.672 5.0133,4.71323 1.7507,0.90721 3.4168,1.23328 1.6499,0.35126 3.1202,0.13933 1.454,-0.18674 2.6659,-0.96905 1.1957,-0.75713 2.0543,-2.09188 1.134,-1.76286 1.0189,-3.33354 -0.084,-1.55448 -0.7697,-2.95079 l 4.4389,-6.90037 23.9984,14.08081 -13.7216,21.33069 -6.5341,-3.38585 9.5905,-14.90882 -10.7573,-6.34652 q 0.4764,1.65713 0.2524,3.6901 -0.1927,2.04918 -1.5697,4.1898 -1.6848,2.61912 -4.0762,4.13338 -2.3914,1.51427 -5.2219,1.96154 -2.8305,0.44725 -6.0052,-0.19045 -3.1435,-0.62151 -6.3949,-2.30634 z m 19.2281,-60.28246 6.5342,3.38585 -5.6539,8.78915 30.0446,15.56843 -1.121,-11.93037 6.9093,3.58025 1.4407,12.59974 -4.3092,6.6989 -37.5167,-19.44029 -5.2327,8.13437 -6.5341,-3.38585 z m -300.95287,170.72427 v 6.7717 h -11.30777 v 31.13687 l 10.95137,-6.8365 v 7.16051 l -11.43737,7.41971 h -8.61853 v -38.88059 h -10.46536 v -6.7717 z m 38.78339,0 v 6.3181 q -1.55523,3.40205 -3.79086,6.12369 -2.23563,2.75404 -4.66567,5.02208 -2.46244,2.30043 -4.86007,4.24446 -2.43004,1.97643 -4.34167,3.79086 -1.94403,1.84683 -3.14285,3.69365 -1.19881,1.84683 -1.19881,3.92046 0,3.04565 1.52282,4.50367 1.52282,1.45802 4.47127,1.45802 2.91604,0 4.47126,-1.58762 1.52283,-1.55523 1.97643,-4.69807 l 9.16934,0.51841 q -0.324,2.68924 -1.32842,5.05447 -1.00441,2.36524 -2.85124,4.14726 -1.87923,1.78203 -4.66567,2.78645 -2.81884,1.03681 -6.7069,1.03681 -3.69366,0 -6.5449,-0.87481 -2.85124,-0.84241 -4.79527,-2.49484 -1.94403,-1.65242 -2.94845,-4.05006 -1.00441,-2.36524 -1.00441,-5.41088 0,-3.20765 1.26362,-5.79969 1.26361,-2.59204 3.24004,-4.79527 1.97643,-2.17083 4.40647,-4.08246 2.39764,-1.91163 4.66567,-3.72606 2.26804,-1.81443 4.14726,-3.66125 1.84683,-1.84683 2.75405,-3.95286 h -21.18992 v -7.48452 z m -228.04975,-44.55331 5.1804,-8.05312 7.51999,3.89669 -5.18041,8.05312 17.98623,9.32006 -3.8086,5.92059 -33.13922,16.9111 -8.81073,-4.56552 16.47984,-25.61845 -5.27522,-2.7335 3.7725,-5.86448 z m -4.57366,22.69665 q -0.30685,0.47702 -0.79421,1.23462 -0.53347,0.77114 -1.08498,1.57033 -0.57957,0.78464 -1.07694,1.49966 -0.54347,0.72853 -0.87034,1.12035 0.33885,-0.23596 1.02656,-0.66528 0.66967,-0.40125 1.4957,-0.87112 0.77993,-0.45635 1.61598,-0.88363 0.80799,-0.44181 1.4235,-0.75889 l 18.14645,-9.19109 -11.56057,-5.99044 z m 66.09783,-1.55368 -3.51979,5.47163 q -3.24214,2.24835 -6.69447,3.60211 -3.47038,1.38181 -6.83837,2.2555 -3.4141,0.8872 -6.57352,1.49483 -3.20554,0.62115 -5.87187,1.33464 -2.71244,0.727 -4.77951,1.78842 -2.06707,1.06143 -3.22228,2.85724 -1.69673,2.63761 -1.19017,4.58367 0.50654,1.94606 3.05996,3.26918 2.52538,1.3086 4.75669,0.63159 2.18522,-0.66348 4.32892,-3.18171 l 7.65208,4.56374 q -1.77876,2.18355 -3.96628,3.78116 -2.18751,1.59763 -4.77967,2.31213 -2.62022,0.69997 -5.59291,0.31939 -3.0188,-0.36707 -6.38595,-2.11185 -3.1988,-1.65755 -5.18069,-3.69467 -1.99995,-2.00906 -2.76297,-4.3125 -0.76301,-2.30342 -0.29715,-4.83058 0.44782,-2.49909 2.14454,-5.13669 1.78697,-2.77791 4.32531,-4.45563 2.53834,-1.67772 5.47739,-2.69884 2.921,-0.99306 6.09044,-1.55808 3.14138,-0.57957 6.11637,-1.13312 2.97498,-0.55356 5.6313,-1.30964 2.62826,-0.77062 4.58719,-2.18738 l -18.35101,-9.50909 4.16961,-6.48178 z M -465.54367,589.68237 q 7.29228,0 12.31024,1.07596 4.98185,1.07595 8.08649,2.99521 3.06854,1.89018 4.44035,4.50736 1.33571,2.58811 1.33571,5.67056 0,3.08245 -1.33571,5.67055 -1.33571,2.58811 -4.40425,4.44921 -3.10464,1.8611 -8.08649,2.90798 -5.01796,1.04687 -12.34634,1.04687 -7.68939,0 -12.70735,-1.01779 -5.05406,-1.04688 -8.05039,-2.93706 -2.99633,-1.89018 -4.18765,-4.50737 -1.22741,-2.64625 -1.22741,-5.84503 0,-2.99522 1.22741,-5.55424 1.19132,-2.58809 4.18765,-4.4492 2.99633,-1.89019 8.05039,-2.93705 5.01796,-1.07596 12.70735,-1.07596 z m 0,8.2005 q -5.37896,0 -8.88071,0.31987 -3.53784,0.31988 -5.59556,1.0178 -2.09382,0.69791 -2.92414,1.83202 -0.83031,1.10503 -0.83031,2.70442 0,1.7157 0.86641,2.87889 0.83032,1.16319 2.92414,1.8902 2.09382,0.69791 5.63166,1.01778 3.50175,0.2908 8.80851,0.2908 5.23455,0 8.7363,-0.31988 3.50174,-0.31987 5.63165,-1.01778 2.09383,-0.69792 2.96024,-1.83204 0.86642,-1.1341 0.86642,-2.79165 0,-1.59939 -0.86642,-2.7335 -0.86641,-1.13411 -2.96024,-1.8611 -2.12991,-0.727 -5.63165,-1.04688 -3.50175,-0.34895 -8.7363,-0.34895 z m 11.33552,24.63056 q 3.46564,0 6.24538,0.93056 2.74362,0.90147 4.69305,2.73349 1.94942,1.83203 2.99633,4.56553 1.01082,2.70441 1.01082,6.3103 0,4.01301 -1.26352,6.77559 -1.26352,2.7335 -3.32124,4.50736 -2.09383,1.74479 -4.72915,2.64627 -2.63534,0.87239 -5.34286,1.13411 l -0.90252,-8.31681 q 1.62453,-0.17449 2.99635,-0.63976 1.3357,-0.49436 2.31042,-1.3086 0.97471,-0.81423 1.51622,-1.97742 0.5054,-1.19227 0.5054,-2.79166 0,-2.93705 -1.80502,-4.56552 -1.80502,-1.62847 -5.52337,-1.62847 -2.27432,0 -3.64613,0.78516 -1.37182,0.75608 -2.09383,1.94835 -0.7581,1.16319 -1.01081,2.52993 -0.2527,1.36675 -0.2527,2.5881 v 2.84982 h -8.1948 v -2.67533 q 0,-1.22135 -0.28879,-2.47179 -0.28881,-1.27951 -1.04692,-2.2973 -0.75811,-1.01779 -2.09383,-1.65755 -1.37182,-0.63975 -3.46563,-0.63975 -3.14074,0 -4.90966,1.42491 -1.80503,1.39582 -1.80503,4.10024 0,2.52994 1.73283,4.10025 1.73282,1.54123 4.90965,1.77387 l -0.72201,8.17142 q -3.57393,-0.34896 -6.20927,-1.57031 -2.63532,-1.25043 -4.36815,-3.11154 -1.73281,-1.89018 -2.56312,-4.33289 -0.86641,-2.4427 -0.86641,-5.17619 0,-3.60589 1.08301,-6.194 1.08301,-2.5881 2.92413,-4.24564 1.84112,-1.65755 4.29595,-2.4427 2.45483,-0.78515 5.23456,-0.78515 2.23823,0 4.18765,0.52343 1.91332,0.52344 3.46564,1.59938 1.51621,1.04688 2.63533,2.70443 1.08301,1.65754 1.62452,3.92576 h 0.1444 q 0.36101,-2.52994 1.44401,-4.39104 1.04692,-1.86111 2.63534,-3.05338 1.58841,-1.19227 3.61004,-1.77386 1.98552,-0.5816 4.22374,-0.5816 z m 62.52983,-180.60452 q 3.00133,1.55523 4.89025,3.60853 1.87385,2.01192 2.54148,4.47331 0.66763,2.46139 0.0515,5.29848 -0.63123,2.7957 -2.64006,5.9185 -2.23563,3.47537 -4.8689,5.30082 -2.61706,1.80027 -5.38731,2.41306 -2.78532,0.57142 -5.56979,0.16951 -2.76827,-0.42711 -5.25886,-1.41547 l 3.85167,-7.60758 q 1.50408,0.5779 2.95131,0.79058 1.43216,0.17128 2.7299,-0.0965 1.29773,-0.26774 2.4147,-1.03209 1.1019,-0.80573 1.99292,-2.19084 1.63622,-2.54357 0.98024,-4.76387 -0.65598,-2.22031 -3.87616,-3.88893 -1.96962,-1.02062 -3.59505,-0.95627 -1.60924,0.0392 -2.89873,0.7477 -1.30455,0.66715 -2.28482,1.73739 -0.98025,1.07024 -1.66066,2.12796 l -1.58762,2.46801 -7.0969,-3.67745 1.49042,-2.31692 q 0.68041,-1.05772 1.12692,-2.27022 0.46269,-1.23769 0.37316,-2.45933 -0.0895,-1.22164 -0.8899,-2.37509 -0.83162,-1.16965 -2.64492,-2.10926 -2.71996,-1.40943 -5.0457,-0.96924 -2.3408,0.39882 -3.84742,2.74091 -1.40942,2.19099 -0.78358,4.32853 0.64206,2.11235 3.26368,3.73945 l -5.17754,6.75265 q -2.90073,-1.90603 -4.50259,-4.14637 -1.58564,-2.26552 -2.0495,-4.6549 -0.44764,-2.41456 0.19411,-4.90261 0.61049,-2.50424 2.13331,-4.87152 2.00883,-3.1228 4.38857,-4.87815 2.37974,-1.75535 4.8976,-2.36462 2.51788,-0.60926 5.08123,-0.18761 2.56334,0.42166 4.97066,1.66908 1.93836,1.00441 3.33502,2.33253 1.36537,1.31192 2.11031,2.94033 0.72987,1.58703 0.77564,3.52472 0.0145,1.92148 -0.78016,4.12882 l 0.12505,0.0648 q 1.72207,-2.02898 3.69679,-3.15474 1.94348,-1.14196 3.9833,-1.46168 2.03981,-0.31973 4.1146,0.0838 2.04351,0.38733 3.98187,1.39175 z m -18.45207,28.68437 q 3.00133,1.55523 4.89024,3.60853 1.87385,2.01192 2.54148,4.47331 0.66763,2.4614 0.0515,5.29848 -0.63123,2.79571 -2.64006,5.9185 -2.23563,3.47537 -4.86889,5.30082 -2.61707,1.80027 -5.38732,2.41307 -2.78531,0.57142 -5.56979,0.16949 -2.76827,-0.4271 -5.25886,-1.41546 l 3.85168,-7.60758 q 1.50407,0.57791 2.9513,0.79057 1.43216,0.17128 2.7299,-0.0965 1.29773,-0.26773 2.4147,-1.03208 1.1019,-0.80573 1.99292,-2.19085 1.63622,-2.54356 0.98024,-4.76387 -0.65597,-2.22031 -3.87615,-3.88894 -1.96963,-1.02061 -3.59506,-0.95625 -1.60924,0.0392 -2.89873,0.7477 -1.30455,0.66715 -2.28481,1.73738 -0.98026,1.07024 -1.66067,2.12796 l -1.58762,2.46801 -7.0969,-3.67745 1.49042,-2.31691 q 0.68041,-1.05772 1.12692,-2.27023 0.46269,-1.23769 0.37316,-2.45933 -0.0895,-1.22164 -0.88989,-2.37509 -0.83163,-1.16966 -2.64492,-2.10927 -2.71997,-1.40942 -5.0457,-0.96923 -2.34081,0.39882 -3.84743,2.74091 -1.40942,2.191 -0.78357,4.32853 0.64205,2.11236 3.26367,3.73945 l -5.17754,6.75265 q -2.90072,-1.90603 -4.50258,-4.14637 -1.58565,-2.26552 -2.0495,-4.6549 -0.44765,-2.41456 0.1941,-4.9026 0.61049,-2.50425 2.13331,-4.87153 2.00883,-3.12279 4.38857,-4.87815 2.37974,-1.75535 4.8976,-2.36461 2.51788,-0.60927 5.08123,-0.18762 2.56335,0.42165 4.97067,1.66907 1.93836,1.00442 3.33501,2.33254 1.36537,1.31192 2.11031,2.94034 0.72987,1.58702 0.77564,3.52471 0.0145,1.92148 -0.78016,4.12883 l 0.12505,0.0648 q 1.72207,-2.02899 3.6968,-3.15475 1.94347,-1.14196 3.98329,-1.46168 2.03982,-0.31973 4.1146,0.0838 2.04352,0.38733 3.98188,1.39174 z m 562.28974,-5.75181 52.137,-27.01622 16.047,24.94563 -8.4366,4.37167 -11.7746,-18.30397 -13.099,6.78762 10.8911,16.93061 -8.4367,4.37168 -10.8911,-16.93061 -13.728,7.11357 12.3684,19.22704 -8.4367,4.37168 z M 36.77523,889.74345 q -2.05091,-3.1882 -2.86066,-6.26677 -0.78837,-3.04536 -0.12844,-5.86704 0.63485,-2.80867 2.85736,-5.33303 2.21878,-2.47814 6.18222,-4.5319 3.51191,-1.8198 6.7301,-2.38038 3.2182,-0.56058 6.19656,0.0659 2.95328,0.63942 5.69554,2.40663 2.73854,1.81343 5.27351,4.66225 l -6.14516,5.26546 q -1.30511,-1.4049 -2.71525,-2.40115 -1.41013,-0.99623 -3.03308,-1.4394 -1.62666,-0.39695 -3.47358,-0.1484 -1.85065,0.29475 -4.00796,1.41262 -3.76276,1.94978 -4.78312,4.47114 -1.02408,2.56755 1.04818,5.78896 1.23909,1.92621 2.83227,2.73904 1.59318,0.81283 3.43541,0.92096 1.84223,0.10813 3.91492,-0.2574 2.07269,-0.36553 4.27452,-0.84227 1.80419,-0.31496 3.62975,-0.59671 1.82555,-0.28176 3.65387,-0.29926 1.80323,-0.005 3.60178,0.34767 1.79853,0.35217 3.57379,1.29206 1.77152,0.9861 3.49095,2.61912 1.69433,1.64601 3.33933,4.20322 2.24318,3.4871 2.79188,6.52382 0.54869,3.03671 -0.30352,5.5595 -0.85592,2.56898 -2.96969,4.63846 -2.11376,2.06948 -5.17413,3.6553 -3.46174,1.79379 -6.39008,2.33701 -2.93205,0.58944 -5.52766,-0.0139 -2.62071,-0.59036 -5.00529,-2.32152 -2.38832,-1.68494 -4.74121,-4.4067 l 6.34115,-5.01277 q 2.49596,2.73618 5.18447,3.37995 2.66342,0.65678 5.82414,-0.98103 1.95663,-1.01388 2.96196,-2.15476 1.00162,-1.09466 1.28789,-2.26145 0.26119,-1.15379 -0.075,-2.3523 -0.31481,-1.16529 -1.04117,-2.29444 -1.11091,-1.72694 -2.46439,-2.53114 -1.33212,-0.77097 -2.95232,-0.94989 -1.59883,-0.14569 -3.49592,0.12886 -1.90081,0.32074 -4.124,0.76427 -1.95471,0.39295 -3.92706,0.70649 -1.95098,0.34675 -3.87964,0.41624 -1.92865,0.0695 -3.8489,-0.26389 -1.92024,-0.33339 -3.78838,-1.3137 -1.87187,-0.9341 -3.68047,-2.65375 -1.83369,-1.70667 -3.5855,-4.42992 z M -401.4393,750.0379 l 5.069,7.87993 -27.39107,19.92704 q -1.23875,0.91207 -2.96659,2.1376 -1.74231,1.20301 -3.38809,2.32599 -1.87586,1.30223 -3.92867,2.63613 2.34247,-0.88361 4.57394,-1.70971 0.96048,-0.34761 1.99497,-0.73356 0.99748,-0.36678 2.00946,-0.71104 0.96048,-0.34761 1.84696,-0.65687 0.87199,-0.33178 1.61045,-0.56434 l 32.90904,-11.34916 5.069,7.87993 -46.87968,35.18884 -4.33038,-6.73171 26.46123,-18.99493 q 2.15094,-1.56485 4.25682,-3.04632 2.1059,-1.48148 3.75973,-2.66866 1.93537,-1.36309 3.71469,-2.58528 -2.95545,1.08116 -5.74841,2.10815 -1.19698,0.44014 -2.48245,0.89611 -1.28548,0.45597 -2.51946,0.91528 -1.24846,0.43679 -2.37144,0.83859 -1.17446,0.39844 -2.09794,0.72687 l -30.27213,10.46308 -4.77935,-7.42965 25.17417,-18.38804 q 0.80117,-0.59526 1.82435,-1.30557 0.98618,-0.69113 2.08338,-1.43978 1.06019,-0.72948 2.15739,-1.47814 1.06018,-0.72947 2.09786,-1.41727 2.41639,-1.61235 4.86981,-3.24388 -2.24596,0.80358 -4.6544,1.66134 -2.04646,0.73022 -4.50639,1.58464 -2.45994,0.85442 -4.77186,1.63214 l -31.47229,11.20505 -4.33038,-6.73171 z m 131.94529,-381.08918 -38.58172,-28.0522 q 1.06542,1.39627 2.10576,2.80552 0.91216,1.21001 1.90233,2.64527 1.01526,1.42226 1.8698,2.75067 l 17.75315,27.59785 -6.57229,3.40562 -30.10129,-46.79347 8.45367,-4.3805 38.99975,28.2341 q -1.0227,-1.32984 -2.10576,-2.80552 -0.93352,-1.24322 -2.05559,-2.83153 -1.09702,-1.6013 -2.1652,-3.26182 l -17.49677,-27.19932 6.57229,-3.40561 30.10129,46.79346 z m -54.42979,26.40869 -3.23526,2.43493 23.4686,25.10318 3.23526,-2.43493 z m 94.2974,-48.85844 12.48826,30.79296 3.96714,-1.29721 -12.48724,-30.79134 z m -43.8353,33.3695 10.70294,16.63807 3.65655,-1.89474 -10.70294,-16.63807 z m -90.84196,51.26211 -2.71433,2.90426 27.96807,21.06239 2.71537,-2.90266 z m 189.38543,-98.13094 6.3405,32.27145 4.1585,-0.65925 -6.33947,-32.26984 z m -114.46919,62.22326 -3.45953,2.17511 8.90722,11.41523 3.45878,-2.17257 z m 42.36093,-21.95049 6.56399,12.63158 3.82575,-1.6021 -6.56118,-12.63091 z m -83.29168,52.34507 -2.98524,2.67926 10.97999,9.85617 2.98524,-2.67927 z m 133.08538,-68.96189 4.01862,13.46339 4.07969,-0.98162 -4.02042,-13.46247 z m -167.51334,105.27242 -2.42106,3.10482 12.71934,7.99341 2.42209,-3.10321 z m 219.76406,-113.87686 1.35438,13.88463 4.20539,-0.33101 -1.35334,-13.88302 z m -244.92165,128.36156 -2.11179,3.28214 23.86469,12.3669 2.11178,-3.28213 z m 271.47703,-140.67336 7.3e-4,24.73267 4.22289,-3.5e-4 -7.3e-4,-24.73267 z m -273.19881,167.31347 -1.78473,3.43529 14.07315,5.89031 1.78473,-3.43529 z m 299.76527,-155.3317 -1.3529,13.88374 4.20715,0.33044 1.35289,-13.88375 z m -329.60429,170.94318 -1.44196,3.56107 34.30749,11.20746 1.44477,-3.56038 z m 359.58844,-186.31794 -6.33943,32.26979 4.15891,0.65883 6.3384,-32.2714 z m -348.26505,215.39629 -1.09268,3.65997 14.99928,3.60713 1.09267,-3.65996 z m 370.66081,-192.0682 -4.01903,13.462 4.0779,0.98069 4.01905,-13.46201 z m -397.02374,212.09162 -0.73226,3.73174 35.95479,5.68971 0.73509,-3.73107 z M -6.9752605,345.20659 -19.46433,375.99883 l 3.96875,1.29577 12.4862495,-30.79291 z m -412.7519595,249.43158 -0.36816,3.77596 15.46917,1.21424 0.36817,-3.77596 z m 430.29036,-222.96691 -6.5629405,12.6308 3.82758,1.60181 6.5629405,-12.63079 z m -444.01222,246.80242 3.9e-4,3.79009 27.55698,-6.5e-4 6.4e-4,-3.78849 z m 473.87251,-245.55021 -13.77809,21.4204 3.65591,1.89375 13.77912,-21.41881 z m -460.51811,269.39273 0.36701,3.77531 15.47017,-1.21555 -0.3688,-3.77439 z m 476.84703,-247.09154 -8.90621,11.41574 3.45758,2.17385 8.908,-11.41667 z m -493.99253,273.99801 0.73171,3.73163 35.95664,-5.69067 -0.73349,-3.7307 z m 528.52616,-273.85554 -23.46935,25.10256 3.2341,2.43708 23.46936,-25.10257 z m -502.51931,293.96002 1.09269,3.65995 14.99979,-3.60837 -1.09268,-3.65995 z m 508.91678,-263.70938 -10.98167,9.85465 2.98522,2.67928 10.98168,-9.85465 z m -520.59638,292.87714 1.44533,3.56055 34.30931,-11.20834 -1.44533,-3.56055 z m 554.57827,-287.35307 -27.9698,21.06331 2.71477,2.90275 27.96801,-21.06238 z m -525.07594,303.09942 1.78327,3.43457 14.07506,-5.88964 -1.78328,-3.43458 z m 525.52122,-272.31342 -12.72057,7.99524 2.42246,3.10337 12.72056,-7.99526 z m -518.50017,296.1987 2.11111,3.28178 18.53982,-9.60692 -2.11111,-3.28179 z m 519.49719,-269.19191 2.11111,3.28178 18.5398,-9.60692 -2.1111,-3.28179 z m -487.55525,278.76853 -12.72159,7.99364 2.42245,3.10337 12.7216,-7.99365 z m 499.36478,-258.75974 1.78328,3.43458 14.074,-5.89125 -1.7833,-3.43458 z m -483.97892,276.68248 -27.96698,21.06399 2.71195,2.90207 27.96979,-21.06331 z m 493.5704,-255.74014 1.4435,3.56146 34.3093,-11.20833 -1.4453,-3.56054 z m -476.83179,272.69054 -10.98064,9.85626 2.98521,2.67928 10.98168,-9.85466 z m 484.82789,-251.22703 1.0937,3.66156 14.9998,-3.60836 -1.0927,-3.65996 z m -466.20694,266.47776 -23.46832,25.10417 3.23487,2.43455 23.46757,-25.10164 z m 471.60254,-244.3569 0.7345,3.7323 35.9549,-5.68974 -0.7328,-3.73322 z m -451.8392,258.44519 -8.908,11.41665 3.45937,2.17293 8.90621,-11.41573 z m 455.5612,-236.06171 0.3688,3.77439 15.4684,-1.21464 -0.367,-3.77531 z m -434.55461,248.64475 -13.77809,21.4204 3.65591,1.89374 13.77912,-21.41879 z m 436.19291,-226.0255 4e-4,3.79009 27.557,-6.6e-4 7e-4,-3.78848 z m -413.72356,236.35284 -6.56294,12.63079 3.82758,1.60181 6.56191,-12.6324 z m 412.45396,-213.7245 -0.3692,3.77436 15.4702,1.21584 0.3682,-3.77596 z m -389.14516,222.33703 -12.48804,30.79385 3.96875,1.29578 12.48625,-30.79293 z m 385.78416,-199.89198 -0.7323,3.73173 35.9548,5.68971 0.7333,-3.73013 z m -361.84476,207.06457 -4.01802,13.46361 4.07792,0.98069 4.01903,-13.46201 z m 356.81306,-184.89261 -1.0916,3.66157 14.9993,3.60714 1.0926,-3.65998 z m -332.19219,189.74218 -6.33944,32.2698 4.15787,0.65721 6.33946,-32.26978 z m 324.54149,-168.15925 -1.4437,3.56199 34.3092,11.20654 1.4448,-3.56039 z m -299.57666,171.49334 -1.3529,13.88375 4.20715,0.33043 1.3529,-13.88374 z m 290.33106,-150.44312 -1.78469,3.43529 14.07319,5.89031 1.7847,-3.43529 z m -265.12882,151.91477 7.2e-4,24.73267 4.2229,-3.6e-4 -7.3e-4,-24.73266 z m 253.94776,-131.59009 -2.11178,3.28214 23.86464,12.36689 2.1118,-3.28213 z m -228.73369,130.44897 1.35334,13.88302 4.20643,-0.3294 -1.35437,-13.88463 z m 215.02556,-111.42147 -2.42209,3.10321 12.72036,7.99503 2.42106,-3.10482 z m -190.0432,108.41767 6.33872,32.27237 4.15851,-0.65924 -6.34049,-32.27145 z m 174.62892,-90.48445 -2.71537,2.90265 27.97091,21.06306 2.71357,-2.90172 z m -149.89904,85.95574 4.02041,13.46246 4.0779,-0.98069 -4.01863,-13.46339 z m 133.18894,-69.01555 -2.98524,2.67927 10.97999,9.85617 2.98523,-2.67928 z m -109.16875,62.16239 12.4882495,30.79295 3.96713,-1.2972 -12.4872195,-30.79135 z m 90.51945,-46.90079 -3.23422,2.43653 23.46935,25.10065 3.23347,-2.434 z m -67.0383505,38.5879 6.5622105,12.63251 3.82753,-1.60304 -6.5629605,-12.62997 z M 51.30381,831.9151 l -3.45775,2.17418 8.90544,11.41615 3.46056,-2.17349 z m -24.83366,14.20743 10.70294,16.63807 3.65654,-1.89474 -10.70294,-16.63807 z"
         transform="matrix(0.82044664,0.47368509,-0.5277768,0.91413623,934.84649,0)" />
      <g
         id="g130999">
        <path
           id="path2192"
           style="fill:none;fill-rule:evenodd;stroke:#ffffff;stroke-width:4;stroke-linecap:butt;stroke-linejoin:miter;stroke-miterlimit:4;stroke-dasharray:none;stroke-opacity:1"
           d="m 559.53993,242.38751 6.0064,-34.06383 m 40.08919,46.41512 11.83026,-32.50334 m 70.50942,80.04682 22.23361,-26.49695 m 11.5107,60.24127 26.49697,-22.23359 m 21.03954,104.5773 32.50334,-11.83023 m -20.15207,57.92582 34.06384,-6.00637 m -34.06787,101.08637 34.06383,6.00639 m -46.41511,40.0892 32.50333,11.83025 m -80.04683,70.50943 26.49695,22.2336 m -60.24126,11.51071 22.23358,26.49696 m -104.5773,21.03955 11.83023,32.50333 m -57.92582,-20.15206 6.00637,34.06383 m -101.08638,-34.06787 -6.00638,34.06383 m -40.0892,-46.41511 -11.83025,32.50333 m -70.50944,-80.04683 -22.23359,26.49695 m -11.51071,-60.24126 -26.49696,22.23358 M 254.72877,605.6264 222.22544,617.45664 m 20.15206,-57.92582 -34.06383,6.00637 m 34.06787,-101.08638 -34.06383,-6.00638 m 46.41511,-40.0892 -32.50333,-11.83025 m 80.04683,-70.50944 -26.49695,-22.23359 m 60.24126,-11.51071 -22.23358,-26.49696 M 418.36436,254.73473 406.53412,222.2314 m 57.92582,20.15206 -6.00637,-34.06383" />
        <path
           id="path3198"
           style="fill:none;fill-rule:evenodd;stroke:#fcfcfc;stroke-width:10;stroke-linecap:butt;stroke-linejoin:miter;stroke-miterlimit:4;stroke-dasharray:none;stroke-opacity:1"
           inkscape:transform-center-x="-284.1466"
           d="m 786.00653,512.00324 h 20.28014 M 512,786.00977 v 20.28014 M 237.99347,512.00324 H 217.71333 M 512,237.99671 v -20.28014" />
        <path
           id="path3697"
           style="fill:none;fill-rule:evenodd;stroke:#f9f9f9;stroke-width:4;stroke-linecap:butt;stroke-linejoin:miter;stroke-miterlimit:4;stroke-dasharray:none;stroke-opacity:1"
           inkscape:transform-center-x="-24.52201"
           inkscape:transform-center-y="-280.28809"
           d="m 535.88091,239.03935 1.28219,-14.65541 m 45.75408,22.94917 3.80759,-14.21011 m 41.07389,30.54563 6.21731,-13.33304 m 35.14569,37.21397 8.43811,-12.05085 m 28.14961,42.75159 10.40253,-10.40251 m 20.29822,46.99023 12.05087,-8.43809 m 11.83007,49.80109 13.33305,-6.21729 m 3.00248,51.09877 14.21011,-3.80757 m -5.91634,50.84384 14.6554,-1.28217 m -14.6554,49.04405 14.6554,1.28219 m -22.94916,45.75408 14.2101,3.80759 m -30.54562,41.07389 13.33303,6.21731 m -37.21396,35.14569 12.05084,8.43811 m -42.75158,28.14961 10.4025,10.40253 m -46.99022,20.29821 8.43809,12.05087 m -49.80108,11.83007 6.21728,13.33305 m -51.09876,3.00248 3.80757,14.21011 m -50.84384,-5.91634 1.28217,14.6554 m -49.04405,-14.6554 -1.28219,14.6554 m -45.75408,-22.94916 -3.80759,14.2101 m -41.07389,-30.54562 -6.21731,13.33303 m -35.14569,-37.21396 -8.43811,12.05084 m -28.14961,-42.75158 -10.40253,10.4025 m -20.29822,-46.99022 -12.05086,8.43809 m -11.83008,-49.80109 -13.33304,6.21729 m -3.00249,-51.09877 -14.2101,3.80757 m 5.91634,-50.84384 -14.6554,1.28217 m 14.6554,-49.04405 -14.6554,-1.28219 m 22.94916,-45.75408 -14.2101,-3.80759 m 30.54562,-41.07389 -13.33303,-6.2173 m 37.21397,-35.1457 -12.05085,-8.4381 m 42.75159,-28.14962 -10.40251,-10.40251 m 46.99023,-20.29823 -8.4381,-12.05085 m 49.8011,-11.83009 -6.2173,-13.33303 m 51.09878,-3.00249 -3.80758,-14.2101 m 50.84385,5.91634 -1.28218,-14.6554 m 162.33071,50.03943 13.05359,-22.60948 m 87.36004,123.02312 22.60948,-13.05359 m -22.6095,287.38874 22.60948,13.05359 m -123.02312,87.36004 13.05359,22.60948 M 374.83241,749.5858 361.77882,772.19528 M 274.41878,649.17216 251.8093,662.22575 M 274.41878,374.83701 251.8093,361.78343 M 374.83242,274.42337 361.77883,251.8139" />
        <g
           id="g130969">
          <text
             xml:space="preserve"
             style="font-style:normal;font-variant:normal;font-weight:bold;font-stretch:normal;font-size:68.2565px;line-height:100%;font-family:'Liberation Sans';-inkscape-font-specification:'Liberation Sans Bold';text-align:center;letter-spacing:0px;word-spacing:0px;text-anchor:middle;fill:#ffffff;fill-opacity:1;stroke:none;stroke-width:2.55961px;stroke-linecap:butt;stroke-linejoin:miter;stroke-opacity:1"
             x="621.8504"
             y="172.58803"
             id="text12316"
             transform="scale(0.82336076,1.2145344)"
             inkscape:transform-center-y="-330.8762"><tspan
               sodipodi:role="line"
               id="tspan12314"
               x="621.8504"
               y="172.58803"
               style="stroke-width:2.55961px">N</tspan></text>
          <text
             xml:space="preserve"
             style="font-style:normal;font-variant:normal;font-weight:bold;font-stretch:normal;font-size:68.2565px;line-height:100%;font-family:'Liberation Sans';-inkscape-font-specification:'Liberation Sans Bold';text-align:center;letter-spacing:0px;word-spacing:0px;text-anchor:middle;fill:#ffffff;fill-opacity:1;stroke:none;stroke-width:2.55961px;stroke-linecap:butt;stroke-linejoin:miter;stroke-opacity:1"
             x="-621.79242"
             y="172.60472"
             id="text15376"
             transform="matrix(0,-0.82336077,1.2145344,0,0,0)"
             inkscape:transform-center-y="-2.2394814e-05"
             inkscape:transform-center-x="330.8762"><tspan
               sodipodi:role="line"
               id="tspan15374"
               x="-621.79242"
               y="172.60472"
               style="stroke-width:2.55961px">W</tspan></text>
          <text
             xml:space="preserve"
             style="font-style:normal;font-variant:normal;font-weight:bold;font-stretch:normal;font-size:68.2565px;line-height:100%;font-family:'Liberation Sans';-inkscape-font-specification:'Liberation Sans Bold';text-align:center;letter-spacing:0px;word-spacing:0px;text-anchor:middle;fill:#ffffff;fill-opacity:1;stroke:none;stroke-width:2.55961px;stroke-linecap:butt;stroke-linejoin:miter;stroke-opacity:1"
             x="-621.81702"
             y="-670.48932"
             id="text15380"
             transform="scale(-0.82336078,-1.2145344)"
             inkscape:transform-center-y="330.87618"
             inkscape:transform-center-x="3.8196014e-05"><tspan
               sodipodi:role="line"
               id="tspan15378"
               x="-621.81702"
               y="-670.48932"
               style="stroke-width:2.55961px">S</tspan></text>
          <text
             xml:space="preserve"
             style="font-style:normal;font-variant:normal;font-weight:bold;font-stretch:normal;font-size:68.2565px;line-height:100%;font-family:'Liberation Sans';-inkscape-font-specification:'Liberation Sans Bold';text-align:center;letter-spacing:0px;word-spacing:0px;text-anchor:middle;fill:#ffffff;fill-opacity:1;stroke:none;stroke-width:2.55961px;stroke-linecap:butt;stroke-linejoin:miter;stroke-opacity:1"
             x="621.82581"
             y="-670.50598"
             id="text15384"
             transform="matrix(0,0.82336078,-1.2145344,0,0,0)"
             inkscape:transform-center-y="2.846388e-05"
             inkscape:transform-center-x="-330.87615"><tspan
               sodipodi:role="line"
               id="tspan15382"
               x="621.82581"
               y="-670.50598"
               style="stroke-width:2.55961px">E</tspan></text>
          <text
             xml:space="preserve"
             style="font-style:normal;font-variant:normal;font-weight:bold;font-stretch:normal;font-size:66.3562px;line-height:100%;font-family:'Liberation Sans';-inkscape-font-specification:'Liberation Sans Bold';text-align:center;letter-spacing:0px;word-spacing:0px;text-anchor:middle;fill:#ffffff;fill-opacity:1;stroke:none;stroke-width:2.48835px;stroke-linecap:butt;stroke-linejoin:miter;stroke-opacity:1"
             x="197.82472"
             y="372.00739"
             id="text25287"
             transform="matrix(0.82044663,-0.47368508,0.5277768,0.91413624,0,0)"
             inkscape:transform-center-y="-286.51096"
             inkscape:transform-center-x="165.45543"><tspan
               sodipodi:role="line"
               id="tspan25285"
               x="197.82472"
               y="372.00739"
               style="stroke-width:2.48835px">33</tspan></text>
          <text
             xml:space="preserve"
             style="font-style:normal;font-variant:normal;font-weight:bold;font-stretch:normal;font-size:66.3562px;line-height:100%;font-family:'Liberation Sans';-inkscape-font-specification:'Liberation Sans Bold';text-align:center;letter-spacing:0px;word-spacing:0px;text-anchor:middle;fill:#ffffff;fill-opacity:1;stroke:none;stroke-width:2.48835px;stroke-linecap:butt;stroke-linejoin:miter;stroke-opacity:1"
             x="-197.81242"
             y="372.00378"
             id="text25291"
             transform="matrix(0.47368509,-0.82044663,0.91413624,0.52777681,0,0)"
             inkscape:transform-center-y="-165.39806"
             inkscape:transform-center-x="286.54408"><tspan
               sodipodi:role="line"
               id="tspan25289"
               x="-197.81242"
               y="372.00378"
               style="stroke-width:2.48835px">30</tspan></text>
          <text
             xml:space="preserve"
             style="font-style:normal;font-variant:normal;font-weight:bold;font-stretch:normal;font-size:66.3562px;line-height:100%;font-family:'Liberation Sans';-inkscape-font-specification:'Liberation Sans Bold';text-align:center;letter-spacing:0px;word-spacing:0px;text-anchor:middle;fill:#ffffff;fill-opacity:1;stroke:none;stroke-width:2.48835px;stroke-linecap:butt;stroke-linejoin:miter;stroke-opacity:1"
             x="-738.25732"
             y="-113.06091"
             id="text25295"
             transform="matrix(-0.47368509,-0.82044664,0.91413624,-0.5277768,0,0)"
             inkscape:transform-center-y="165.45542"
             inkscape:transform-center-x="286.51097"><tspan
               sodipodi:role="line"
               id="tspan25293"
               x="-738.25732"
               y="-113.06091"
               style="stroke-width:2.48835px">24</tspan></text>
          <text
             xml:space="preserve"
             style="font-style:normal;font-variant:normal;font-weight:bold;font-stretch:normal;font-size:66.3562px;line-height:100%;font-family:'Liberation Sans';-inkscape-font-specification:'Liberation Sans Bold';text-align:center;letter-spacing:0px;word-spacing:0px;text-anchor:middle;fill:#ffffff;fill-opacity:1;stroke:none;stroke-width:2.48835px;stroke-linecap:butt;stroke-linejoin:miter;stroke-opacity:1"
             x="-738.2533"
             y="-468.14932"
             id="text25299"
             transform="matrix(-0.82044664,-0.47368509,0.5277768,-0.91413623,0,0)"
             inkscape:transform-center-y="286.54409"
             inkscape:transform-center-x="165.39809"><tspan
               sodipodi:role="line"
               id="tspan25297"
               x="-738.2533"
               y="-468.14932"
               style="stroke-width:2.48835px">21</tspan></text>
          <text
             xml:space="preserve"
             style="font-style:normal;font-variant:normal;font-weight:bold;font-stretch:normal;font-size:66.3562px;line-height:100%;font-family:'Liberation Sans';-inkscape-font-specification:'Liberation Sans Bold';text-align:center;letter-spacing:0px;word-spacing:0px;text-anchor:middle;fill:#ffffff;fill-opacity:1;stroke:none;stroke-width:2.48835px;stroke-linecap:butt;stroke-linejoin:miter;stroke-opacity:1"
             x="-197.79745"
             y="-953.20416"
             id="text25303"
             transform="matrix(-0.82044664,0.47368509,-0.5277768,-0.91413623,0,0)"
             inkscape:transform-center-y="286.51097"
             inkscape:transform-center-x="-165.45544"><tspan
               sodipodi:role="line"
               id="tspan25301"
               x="-197.79745"
               y="-953.20416"
               style="stroke-width:2.48835px">15</tspan></text>
          <text
             xml:space="preserve"
             style="font-style:normal;font-variant:normal;font-weight:bold;font-stretch:normal;font-size:66.3562px;line-height:100%;font-family:'Liberation Sans';-inkscape-font-specification:'Liberation Sans Bold';text-align:center;letter-spacing:0px;word-spacing:0px;text-anchor:middle;fill:#ffffff;fill-opacity:1;stroke:none;stroke-width:2.48835px;stroke-linecap:butt;stroke-linejoin:miter;stroke-opacity:1"
             x="197.83969"
             y="-953.20056"
             id="text25307"
             transform="matrix(-0.47368509,0.82044664,-0.91413623,-0.5277768,0,0)"
             inkscape:transform-center-y="165.39806"
             inkscape:transform-center-x="-286.5441"><tspan
               sodipodi:role="line"
               id="tspan25305"
               x="197.83969"
               y="-953.20056"
               style="stroke-width:2.48835px">12</tspan></text>
          <text
             xml:space="preserve"
             style="font-style:normal;font-variant:normal;font-weight:bold;font-stretch:normal;font-size:66.3562px;line-height:100%;font-family:'Liberation Sans';-inkscape-font-specification:'Liberation Sans Bold';text-align:center;letter-spacing:0px;word-spacing:0px;text-anchor:middle;fill:#ffffff;fill-opacity:1;stroke:none;stroke-width:2.48835px;stroke-linecap:butt;stroke-linejoin:miter;stroke-opacity:1"
             x="738.28461"
             y="-468.13589"
             id="text25311"
             transform="matrix(0.47368509,0.82044664,-0.91413623,0.5277768,0,0)"
             inkscape:transform-center-y="-165.45545"
             inkscape:transform-center-x="-286.511"><tspan
               sodipodi:role="line"
               id="tspan25309"
               x="738.28461"
               y="-468.13589"
               style="stroke-width:2.48835px">6</tspan></text>
          <text
             xml:space="preserve"
             style="font-style:normal;font-variant:normal;font-weight:bold;font-stretch:normal;font-size:66.3562px;line-height:100%;font-family:'Liberation Sans';-inkscape-font-specification:'Liberation Sans Bold';text-align:center;letter-spacing:0px;word-spacing:0px;text-anchor:middle;fill:#ffffff;fill-opacity:1;stroke:none;stroke-width:2.48835px;stroke-linecap:butt;stroke-linejoin:miter;stroke-opacity:1"
             x="738.28058"
             y="-113.0475"
             id="text25315"
             transform="matrix(0.82044664,0.47368509,-0.5277768,0.91413623,0,0)"
             inkscape:transform-center-y="-286.54413"
             inkscape:transform-center-x="-165.39807"><tspan
               sodipodi:role="line"
               id="tspan25313"
               x="738.28058"
               y="-113.0475"
               style="stroke-width:2.48835px">3</tspan></text>
        </g>
      </g>
      <g
         aria-label="N"
         transform="matrix(0.82336076,0,0,1.2145344,934.84649,0)"
         id="text133354"
         style="font-weight:bold;font-size:68.2565px;line-height:100%;font-family:'Liberation Sans';-inkscape-font-specification:'Liberation Sans Bold';text-align:center;letter-spacing:0px;word-spacing:0px;text-anchor:middle;fill:#000000;fill-opacity:1;stroke:#000000;stroke-width:0.999665;stroke-miterlimit:4;stroke-dasharray:none;stroke-opacity:1"
         inkscape:transform-center-y="-330.8762" />
      <g
         aria-label="W"
         transform="matrix(0,-0.82336077,1.2145344,0,934.84649,0)"
         id="text133358"
         style="font-weight:bold;font-size:68.2565px;line-height:100%;font-family:'Liberation Sans';-inkscape-font-specification:'Liberation Sans Bold';text-align:center;letter-spacing:0px;word-spacing:0px;text-anchor:middle;fill:#000000;fill-opacity:1;stroke:#000000;stroke-width:0.999665;stroke-miterlimit:4;stroke-dasharray:none;stroke-opacity:1"
         inkscape:transform-center-x="330.8762"
         inkscape:transform-center-y="-2.2394814e-05" />
      <g
         aria-label="S"
         transform="matrix(-0.82336078,0,0,-1.2145344,934.84649,0)"
         id="text133362"
         style="font-weight:bold;font-size:68.2565px;line-height:100%;font-family:'Liberation Sans';-inkscape-font-specification:'Liberation Sans Bold';text-align:center;letter-spacing:0px;word-spacing:0px;text-anchor:middle;fill:#000000;fill-opacity:1;stroke:#000000;stroke-width:0.999665;stroke-miterlimit:4;stroke-dasharray:none;stroke-opacity:1"
         inkscape:transform-center-x="3.8196014e-05"
         inkscape:transform-center-y="330.87618" />
      <g
         aria-label="E"
         transform="matrix(0,0.82336078,-1.2145344,0,934.84649,0)"
         id="text133366"
         style="font-weight:bold;font-size:68.2565px;line-height:100%;font-family:'Liberation Sans';-inkscape-font-specification:'Liberation Sans Bold';text-align:center;letter-spacing:0px;word-spacing:0px;text-anchor:middle;fill:#000000;fill-opacity:1;stroke:#000000;stroke-width:0.999665;stroke-miterlimit:4;stroke-dasharray:none;stroke-opacity:1"
         inkscape:transform-center-x="-330.87615"
         inkscape:transform-center-y="2.846388e-05" />
      <g
         aria-label="33"
         transform="matrix(0.82044663,-0.47368508,0.5277768,0.91413624,934.84649,0)"
         id="text133370"
         style="font-weight:bold;font-size:66.3562px;line-height:100%;font-family:'Liberation Sans';-inkscape-font-specification:'Liberation Sans Bold';text-align:center;letter-spacing:0px;word-spacing:0px;text-anchor:middle;fill:#000000;fill-opacity:1;stroke:#000000;stroke-width:0.999665;stroke-miterlimit:4;stroke-dasharray:none;stroke-opacity:1"
         inkscape:transform-center-x="165.45543"
         inkscape:transform-center-y="-286.51096" />
      <g
         aria-label="30"
         transform="matrix(0.47368509,-0.82044663,0.91413624,0.52777681,934.84649,0)"
         id="text133374"
         style="font-weight:bold;font-size:66.3562px;line-height:100%;font-family:'Liberation Sans';-inkscape-font-specification:'Liberation Sans Bold';text-align:center;letter-spacing:0px;word-spacing:0px;text-anchor:middle;fill:#000000;fill-opacity:1;stroke:#000000;stroke-width:0.999665;stroke-miterlimit:4;stroke-dasharray:none;stroke-opacity:1"
         inkscape:transform-center-x="286.54408"
         inkscape:transform-center-y="-165.39806" />
      <g
         aria-label="24"
         transform="matrix(-0.47368509,-0.82044664,0.91413624,-0.5277768,934.84649,0)"
         id="text133378"
         style="font-weight:bold;font-size:66.3562px;line-height:100%;font-family:'Liberation Sans';-inkscape-font-specification:'Liberation Sans Bold';text-align:center;letter-spacing:0px;word-spacing:0px;text-anchor:middle;fill:#000000;fill-opacity:1;stroke:#000000;stroke-width:0.999665;stroke-miterlimit:4;stroke-dasharray:none;stroke-opacity:1"
         inkscape:transform-center-x="286.51097"
         inkscape:transform-center-y="165.45542" />
      <g
         aria-label="21"
         transform="matrix(-0.82044664,-0.47368509,0.5277768,-0.91413623,934.84649,0)"
         id="text133382"
         style="font-weight:bold;font-size:66.3562px;line-height:100%;font-family:'Liberation Sans';-inkscape-font-specification:'Liberation Sans Bold';text-align:center;letter-spacing:0px;word-spacing:0px;text-anchor:middle;fill:#000000;fill-opacity:1;stroke:#000000;stroke-width:0.999665;stroke-miterlimit:4;stroke-dasharray:none;stroke-opacity:1"
         inkscape:transform-center-x="165.39809"
         inkscape:transform-center-y="286.54409" />
      <g
         aria-label="15"
         transform="matrix(-0.82044664,0.47368509,-0.5277768,-0.91413623,934.84649,0)"
         id="text133386"
         style="font-weight:bold;font-size:66.3562px;line-height:100%;font-family:'Liberation Sans';-inkscape-font-specification:'Liberation Sans Bold';text-align:center;letter-spacing:0px;word-spacing:0px;text-anchor:middle;fill:#000000;fill-opacity:1;stroke:#000000;stroke-width:0.999665;stroke-miterlimit:4;stroke-dasharray:none;stroke-opacity:1"
         inkscape:transform-center-x="-165.45544"
         inkscape:transform-center-y="286.51097" />
      <g
         aria-label="12"
         transform="matrix(-0.47368509,0.82044664,-0.91413623,-0.5277768,934.84649,0)"
         id="text133390"
         style="font-weight:bold;font-size:66.3562px;line-height:100%;font-family:'Liberation Sans';-inkscape-font-specification:'Liberation Sans Bold';text-align:center;letter-spacing:0px;word-spacing:0px;text-anchor:middle;fill:#000000;fill-opacity:1;stroke:#000000;stroke-width:0.999665;stroke-miterlimit:4;stroke-dasharray:none;stroke-opacity:1"
         inkscape:transform-center-x="-286.5441"
         inkscape:transform-center-y="165.39806" />
      <g
         aria-label="6"
         transform="matrix(0.47368509,0.82044664,-0.91413623,0.5277768,934.84649,0)"
         id="text133394"
         style="font-weight:bold;font-size:66.3562px;line-height:100%;font-family:'Liberation Sans';-inkscape-font-specification:'Liberation Sans Bold';text-align:center;letter-spacing:0px;word-spacing:0px;text-anchor:middle;fill:#000000;fill-opacity:1;stroke:#000000;stroke-width:0.999665;stroke-miterlimit:4;stroke-dasharray:none;stroke-opacity:1"
         inkscape:transform-center-x="-286.511"
         inkscape:transform-center-y="-165.45545" />
      <g
         id="g5585"
         transform="matrix(4.3736521,0,0,4.3736521,-3505.6466,-134.16553)"
         inkscape:label="Screw">
        <circle
           style="fill:url(#radialGradient4602);fill-opacity:1;fill-rule:evenodd;stroke-width:8;stroke-linecap:round;stroke-linejoin:bevel"
           id="path4594"
           cx="1012"
           cy="223.53333"
           r="12" />
        <rect
           style="mix-blend-mode:normal;fill:#000000;fill-opacity:1;fill-rule:evenodd;stroke-width:7.0183;stroke-linecap:round;stroke-linejoin:bevel;filter:url(#filter4954)"
           id="rect4806"
           width="16.204494"
           height="4.9804811"
           x="1003.8977"
           y="221.04308"
           transform="matrix(0.82978747,0,0,0.82978747,172.25507,38.048164)" />
        <rect
           style="fill:#000000;fill-opacity:1;fill-rule:evenodd;stroke-width:7.0183;stroke-linecap:round;stroke-linejoin:bevel;filter:url(#filter4954)"
           id="rect4958"
           width="16.204494"
           height="4.9804811"
           x="1003.8977"
           y="221.04308"
           transform="matrix(0,0.82978747,-0.82978747,0,1197.4851,-616.21161)" />
      </g>
    </g>
    <g
       id="g130582"
       transform="translate(557.30444,-426.86179)">
      <rect
         style="opacity:1;fill:#ff7611;fill-opacity:1;fill-rule:evenodd;stroke:none;stroke-width:3;stroke-linecap:round;stroke-linejoin:round;stroke-miterlimit:4;stroke-dasharray:none;stroke-opacity:1"
         id="rect33284"
         width="74.185478"
         height="40.273964"
         x="356.33655"
         y="426.86179" />
      <text
         xml:space="preserve"
         style="font-style:normal;font-variant:normal;font-weight:bold;font-stretch:normal;font-size:31.7148px;line-height:100%;font-family:'Liberation Sans';-inkscape-font-specification:'Liberation Sans Bold';text-align:center;letter-spacing:5.17509px;word-spacing:0px;text-anchor:middle;fill:#000000;fill-opacity:1;stroke:none;stroke-width:1.18931px;stroke-linecap:butt;stroke-linejoin:miter;stroke-opacity:1"
         x="446.47995"
         y="403.2204"
         id="text34886"
         transform="scale(0.87872979,1.1380063)"><tspan
           sodipodi:role="line"
           id="tspan34884"
           x="449.0675"
           y="403.2204"
           style="font-style:normal;font-variant:normal;font-weight:bold;font-stretch:normal;font-family:'Liberation Sans';-inkscape-font-specification:'Liberation Sans Bold';fill:#000000;fill-opacity:1;stroke:none;stroke-width:1.18931px;stroke-opacity:1">GS</tspan></text>
    </g>
    <g
       id="g130577"
       transform="translate(432.67981,-341.6506)">
      <rect
         style="opacity:1;fill:#ff7611;fill-opacity:1;fill-rule:evenodd;stroke:none;stroke-width:2.90005;stroke-linecap:round;stroke-linejoin:round;stroke-miterlimit:4;stroke-dasharray:none;stroke-opacity:1"
         id="rect37455"
         width="36.173515"
         height="77.182686"
         x="555.14667"
         y="341.6506" />
      <text
         xml:space="preserve"
         style="font-style:normal;font-variant:normal;font-weight:bold;font-stretch:normal;font-size:26.229px;line-height:80%;font-family:'Liberation Sans';-inkscape-font-specification:'Liberation Sans Bold';text-align:center;letter-spacing:4px;word-spacing:0px;text-anchor:middle;white-space:pre;inline-size:85.855;fill:#000000;fill-opacity:1;stroke:none;stroke-width:0.983591px;stroke-linecap:butt;stroke-linejoin:miter;stroke-opacity:1"
         x="653.0686"
         y="322.18472"
         id="text37459"
         transform="scale(0.87872976,1.1380063)"><tspan
           x="653.0686"
           y="322.18472"
           id="tspan134886">N
</tspan><tspan
           x="653.0686"
           y="343.16791"
           id="tspan134888">A
</tspan><tspan
           x="653.0686"
           y="364.15112"
           id="tspan134890">V</tspan></text>
    </g>
    <text
       xml:space="preserve"
       style="font-size:28.9448px;line-height:100%;font-family:'Liberation Sans';-inkscape-font-specification:'Liberation Sans';text-align:center;letter-spacing:0px;word-spacing:0px;text-anchor:middle;fill:#ffffff;fill-opacity:1;stroke:none;stroke-width:1.08543px;stroke-linecap:butt;stroke-linejoin:miter;stroke-opacity:1"
       x="756.30823"
       y="327.41534"
       id="text56973"
       transform="scale(0.86160784,1.1606208)"><tspan
         sodipodi:role="line"
         id="tspan56971"
         x="756.30823"
         y="327.41534"
         style="stroke-width:1.08543px">TO</tspan></text>
    <text
       xml:space="preserve"
       style="font-size:28.9448px;line-height:100%;font-family:'Liberation Sans';-inkscape-font-specification:'Liberation Sans';text-align:center;letter-spacing:0px;word-spacing:0px;text-anchor:middle;fill:#ffffff;fill-opacity:1;stroke:none;stroke-width:1.08543px;stroke-linecap:butt;stroke-linejoin:miter;stroke-opacity:1"
       x="756.30823"
       y="573.7113"
       id="text58607"
       transform="scale(0.86160785,1.1606208)"><tspan
         sodipodi:role="line"
         id="tspan58605"
         x="756.30823"
         y="573.7113"
         style="stroke-width:1.08543px">FR</tspan></text>
    <rect
       style="opacity:1;fill:#a4c832;fill-opacity:1;fill-rule:evenodd;stroke:none;stroke-width:4.30699;stroke-linecap:round;stroke-linejoin:round;stroke-miterlimit:4;stroke-dasharray:none;stroke-opacity:1"
       id="rect59894"
       width="73.156586"
       height="150.785"
       x="0"
       y="0" />
    <g
       id="g130470"
       transform="translate(443.96039,91.535583)">
      <rect
         style="opacity:1;fill:#030100;fill-opacity:1;fill-rule:evenodd;stroke:none;stroke-width:4.15793;stroke-linecap:round;stroke-linejoin:round;stroke-miterlimit:4;stroke-dasharray:none;stroke-opacity:1"
         id="rect115611"
         width="191.65015"
         height="84.092506"
         x="388.3895"
         y="848.37195" />
      <text
         xml:space="preserve"
         style="font-style:italic;font-variant:normal;font-weight:bold;font-stretch:normal;font-size:26.742px;line-height:100%;font-family:'Liberation Sans';-inkscape-font-specification:'Liberation Sans Bold Italic';text-align:center;letter-spacing:0px;word-spacing:0px;text-anchor:middle;fill:#fffcfa;fill-opacity:1;stroke:none;stroke-width:1.00282px;stroke-linecap:butt;stroke-linejoin:miter;stroke-opacity:1"
         x="530.4054"
         y="827.7005"
         id="text115053"
         transform="scale(0.9195715,1.087463)"><tspan
           sodipodi:role="line"
           id="tspan115051"
           x="530.4054"
           y="827.7005"
           style="fill:#fffcfa;fill-opacity:1;stroke:none;stroke-width:1.00282px">BENDIX/KING</tspan></text>
    </g>
    <g
       id="g120066"
       transform="translate(-70.381027,89.520843)">
      <circle
         style="opacity:1;fill:url(#radialGradient119884);fill-opacity:1;fill-rule:evenodd;stroke:none;stroke-width:3;stroke-linecap:round;stroke-linejoin:round;stroke-miterlimit:4;stroke-dasharray:none;stroke-opacity:1"
         id="path115827"
         cx="135.67166"
         cy="871.04309"
         r="61.940918" />
      <text
         xml:space="preserve"
         style="font-size:47.9274px;line-height:100%;font-family:'Liberation Sans';-inkscape-font-specification:'Liberation Sans';text-align:center;letter-spacing:0px;word-spacing:0px;text-anchor:middle;fill:#ffffff;fill-opacity:1;stroke:none;stroke-width:1.79727px;stroke-linecap:butt;stroke-linejoin:miter;stroke-opacity:1"
         x="151.51064"
         y="799.15552"
         id="text117784"
         transform="scale(0.89935874,1.1119034)"><tspan
           sodipodi:role="line"
           id="tspan117782"
           x="151.51064"
           y="799.15552"
           style="stroke-width:1.79727px">OBS</tspan></text>
    </g>
    <rect
       style="opacity:1;fill:#f6f6f6;fill-opacity:1;fill-rule:evenodd;stroke:none;stroke-width:4.30699;stroke-linecap:round;stroke-linejoin:round;stroke-miterlimit:4;stroke-dasharray:none;stroke-opacity:1"
       id="rect120166"
       width="73.156586"
       height="150.785"
       x="73.156586"
       y="0" />
    <path
       id="rect131159"
       style="opacity:1;fill:url(#radialGradient131690);fill-opacity:1;fill-rule:evenodd;stroke:none;stroke-width:4;stroke-linecap:round;stroke-linejoin:round;stroke-miterlimit:4;stroke-dasharray:none;stroke-opacity:1"
       d="M 448.95703,277.62891 V 448.95703 H 277.62891 V 575.04297 H 448.95703 V 746.37109 H 575.04297 V 575.04297 H 746.37109 V 448.95703 H 575.04297 V 277.62891 Z" />
    <circle
       style="opacity:1;fill:none;fill-opacity:1;fill-rule:evenodd;stroke:#f8f8f8;stroke-width:9;stroke-linecap:round;stroke-linejoin:round;stroke-miterlimit:4;stroke-dasharray:none;stroke-opacity:1"
       id="path127276"
       cx="512"
       cy="512"
       r="11.365801" />
    <g
       id="g128547"
       inkscape:transform-center-y="98.986252">
      <path
         id="path128359"
         style="fill:none;fill-rule:evenodd;stroke:#fdfdfd;stroke-width:2.5;stroke-linecap:butt;stroke-linejoin:miter;stroke-miterlimit:4;stroke-dasharray:none;stroke-opacity:1"
         d="M 527.24595,545 H 512 m 0,0 h -15.24595 m 18.34116,0 A 3.0952122,3.0952122 0 0 1 512,548.09521 3.0952122,3.0952122 0 0 1 508.90479,545 3.0952122,3.0952122 0 0 1 512,541.90479 3.0952122,3.0952122 0 0 1 515.09521,545 Z" />
      <path
         id="path128534"
         style="fill:none;fill-rule:evenodd;stroke:#fdfdfd;stroke-width:2.5;stroke-linecap:butt;stroke-linejoin:miter;stroke-miterlimit:4;stroke-dasharray:none;stroke-opacity:1"
         d="M 527.24595,578 H 512 m 0,0 h -15.24595 m 18.34116,0 A 3.0952122,3.0952122 0 0 1 512,581.09521 3.0952122,3.0952122 0 0 1 508.90479,578 3.0952122,3.0952122 0 0 1 512,574.90479 3.0952122,3.0952122 0 0 1 515.09521,578 Z" />
      <path
         id="path128536"
         style="fill:none;fill-rule:evenodd;stroke:#fdfdfd;stroke-width:2.5;stroke-linecap:butt;stroke-linejoin:miter;stroke-miterlimit:4;stroke-dasharray:none;stroke-opacity:1"
         d="M 527.24595,611 H 512 m 0,0 h -15.24595 m 18.34116,0 A 3.0952122,3.0952122 0 0 1 512,614.09521 3.0952122,3.0952122 0 0 1 508.90479,611 3.0952122,3.0952122 0 0 1 512,607.90479 3.0952122,3.0952122 0 0 1 515.09521,611 Z" />
      <path
         id="path128538"
         style="fill:none;fill-rule:evenodd;stroke:#fdfdfd;stroke-width:2.5;stroke-linecap:butt;stroke-linejoin:miter;stroke-miterlimit:4;stroke-dasharray:none;stroke-opacity:1"
         d="M 527.24595,644 H 512 m 0,0 h -15.24595 m 18.34116,0 A 3.0952122,3.0952122 0 0 1 512,647.09521 3.0952122,3.0952122 0 0 1 508.90479,644 3.0952122,3.0952122 0 0 1 512,640.90479 3.0952122,3.0952122 0 0 1 515.09521,644 Z" />
      <path
         id="path128540"
         style="fill:none;fill-rule:evenodd;stroke:#fdfdfd;stroke-width:2.5;stroke-linecap:butt;stroke-linejoin:miter;stroke-miterlimit:4;stroke-dasharray:none;stroke-opacity:1"
         d="M 527.24595,677 H 512 m 0,0 h -15.24595 m 18.34116,0 A 3.0952122,3.0952122 0 0 1 512,680.09521 3.0952122,3.0952122 0 0 1 508.90479,677 3.0952122,3.0952122 0 0 1 512,673.90479 3.0952122,3.0952122 0 0 1 515.09521,677 Z" />
    </g>
    <g
       id="g128607"
       inkscape:transform-center-y="2e-06"
       transform="rotate(90,512,512.01375)"
       inkscape:transform-center-x="98.98625">
      <path
         id="path128597"
         style="fill:none;fill-rule:evenodd;stroke:#fdfdfd;stroke-width:2.5;stroke-linecap:butt;stroke-linejoin:miter;stroke-miterlimit:4;stroke-dasharray:none;stroke-opacity:1"
         d="M 527.24595,545 H 512 m 0,0 h -15.24595 m 18.34116,0 A 3.0952122,3.0952122 0 0 1 512,548.09521 3.0952122,3.0952122 0 0 1 508.90479,545 3.0952122,3.0952122 0 0 1 512,541.90479 3.0952122,3.0952122 0 0 1 515.09521,545 Z" />
      <path
         id="path128599"
         style="fill:none;fill-rule:evenodd;stroke:#fdfdfd;stroke-width:2.5;stroke-linecap:butt;stroke-linejoin:miter;stroke-miterlimit:4;stroke-dasharray:none;stroke-opacity:1"
         d="M 527.24595,578 H 512 m 0,0 h -15.24595 m 18.34116,0 A 3.0952122,3.0952122 0 0 1 512,581.09521 3.0952122,3.0952122 0 0 1 508.90479,578 3.0952122,3.0952122 0 0 1 512,574.90479 3.0952122,3.0952122 0 0 1 515.09521,578 Z" />
      <path
         id="path128601"
         style="fill:none;fill-rule:evenodd;stroke:#fdfdfd;stroke-width:2.5;stroke-linecap:butt;stroke-linejoin:miter;stroke-miterlimit:4;stroke-dasharray:none;stroke-opacity:1"
         d="M 527.24595,611 H 512 m 0,0 h -15.24595 m 18.34116,0 A 3.0952122,3.0952122 0 0 1 512,614.09521 3.0952122,3.0952122 0 0 1 508.90479,611 3.0952122,3.0952122 0 0 1 512,607.90479 3.0952122,3.0952122 0 0 1 515.09521,611 Z" />
      <path
         id="path128603"
         style="fill:none;fill-rule:evenodd;stroke:#fdfdfd;stroke-width:2.5;stroke-linecap:butt;stroke-linejoin:miter;stroke-miterlimit:4;stroke-dasharray:none;stroke-opacity:1"
         d="M 527.24595,644 H 512 m 0,0 h -15.24595 m 18.34116,0 A 3.0952122,3.0952122 0 0 1 512,647.09521 3.0952122,3.0952122 0 0 1 508.90479,644 3.0952122,3.0952122 0 0 1 512,640.90479 3.0952122,3.0952122 0 0 1 515.09521,644 Z" />
      <path
         id="path128605"
         style="fill:none;fill-rule:evenodd;stroke:#fdfdfd;stroke-width:2.5;stroke-linecap:butt;stroke-linejoin:miter;stroke-miterlimit:4;stroke-dasharray:none;stroke-opacity:1"
         d="M 527.24595,677 H 512 m 0,0 h -15.24595 m 18.34116,0 A 3.0952122,3.0952122 0 0 1 512,680.09521 3.0952122,3.0952122 0 0 1 508.90479,677 3.0952122,3.0952122 0 0 1 512,673.90479 3.0952122,3.0952122 0 0 1 515.09521,677 Z" />
    </g>
    <g
       id="g128619"
       inkscape:transform-center-y="-98.986252"
       transform="rotate(180,512,512.01375)">
      <path
         id="path128609"
         style="fill:none;fill-rule:evenodd;stroke:#fdfdfd;stroke-width:2.5;stroke-linecap:butt;stroke-linejoin:miter;stroke-miterlimit:4;stroke-dasharray:none;stroke-opacity:1"
         d="M 527.24595,545 H 512 m 0,0 h -15.24595 m 18.34116,0 A 3.0952122,3.0952122 0 0 1 512,548.09521 3.0952122,3.0952122 0 0 1 508.90479,545 3.0952122,3.0952122 0 0 1 512,541.90479 3.0952122,3.0952122 0 0 1 515.09521,545 Z" />
      <path
         id="path128611"
         style="fill:none;fill-rule:evenodd;stroke:#fdfdfd;stroke-width:2.5;stroke-linecap:butt;stroke-linejoin:miter;stroke-miterlimit:4;stroke-dasharray:none;stroke-opacity:1"
         d="M 527.24595,578 H 512 m 0,0 h -15.24595 m 18.34116,0 A 3.0952122,3.0952122 0 0 1 512,581.09521 3.0952122,3.0952122 0 0 1 508.90479,578 3.0952122,3.0952122 0 0 1 512,574.90479 3.0952122,3.0952122 0 0 1 515.09521,578 Z" />
      <path
         id="path128613"
         style="fill:none;fill-rule:evenodd;stroke:#fdfdfd;stroke-width:2.5;stroke-linecap:butt;stroke-linejoin:miter;stroke-miterlimit:4;stroke-dasharray:none;stroke-opacity:1"
         d="M 527.24595,611 H 512 m 0,0 h -15.24595 m 18.34116,0 A 3.0952122,3.0952122 0 0 1 512,614.09521 3.0952122,3.0952122 0 0 1 508.90479,611 3.0952122,3.0952122 0 0 1 512,607.90479 3.0952122,3.0952122 0 0 1 515.09521,611 Z" />
      <path
         id="path128615"
         style="fill:none;fill-rule:evenodd;stroke:#fdfdfd;stroke-width:2.5;stroke-linecap:butt;stroke-linejoin:miter;stroke-miterlimit:4;stroke-dasharray:none;stroke-opacity:1"
         d="M 527.24595,644 H 512 m 0,0 h -15.24595 m 18.34116,0 A 3.0952122,3.0952122 0 0 1 512,647.09521 3.0952122,3.0952122 0 0 1 508.90479,644 3.0952122,3.0952122 0 0 1 512,640.90479 3.0952122,3.0952122 0 0 1 515.09521,644 Z" />
      <path
         id="path128617"
         style="fill:none;fill-rule:evenodd;stroke:#fdfdfd;stroke-width:2.5;stroke-linecap:butt;stroke-linejoin:miter;stroke-miterlimit:4;stroke-dasharray:none;stroke-opacity:1"
         d="M 527.24595,677 H 512 m 0,0 h -15.24595 m 18.34116,0 A 3.0952122,3.0952122 0 0 1 512,680.09521 3.0952122,3.0952122 0 0 1 508.90479,677 3.0952122,3.0952122 0 0 1 512,673.90479 3.0952122,3.0952122 0 0 1 515.09521,677 Z" />
    </g>
    <g
       id="g128595"
       transform="rotate(-90,512,512.01375)"
       inkscape:transform-center-x="-98.986252">
      <path
         id="path128585"
         style="fill:none;fill-rule:evenodd;stroke:#fdfdfd;stroke-width:2.5;stroke-linecap:butt;stroke-linejoin:miter;stroke-miterlimit:4;stroke-dasharray:none;stroke-opacity:1"
         d="M 527.24595,545 H 512 m 0,0 h -15.24595 m 18.34116,0 A 3.0952122,3.0952122 0 0 1 512,548.09521 3.0952122,3.0952122 0 0 1 508.90479,545 3.0952122,3.0952122 0 0 1 512,541.90479 3.0952122,3.0952122 0 0 1 515.09521,545 Z" />
      <path
         id="path128587"
         style="fill:none;fill-rule:evenodd;stroke:#fdfdfd;stroke-width:2.5;stroke-linecap:butt;stroke-linejoin:miter;stroke-miterlimit:4;stroke-dasharray:none;stroke-opacity:1"
         d="M 527.24595,578 H 512 m 0,0 h -15.24595 m 18.34116,0 A 3.0952122,3.0952122 0 0 1 512,581.09521 3.0952122,3.0952122 0 0 1 508.90479,578 3.0952122,3.0952122 0 0 1 512,574.90479 3.0952122,3.0952122 0 0 1 515.09521,578 Z" />
      <path
         id="path128589"
         style="fill:none;fill-rule:evenodd;stroke:#fdfdfd;stroke-width:2.5;stroke-linecap:butt;stroke-linejoin:miter;stroke-miterlimit:4;stroke-dasharray:none;stroke-opacity:1"
         d="M 527.24595,611 H 512 m 0,0 h -15.24595 m 18.34116,0 A 3.0952122,3.0952122 0 0 1 512,614.09521 3.0952122,3.0952122 0 0 1 508.90479,611 3.0952122,3.0952122 0 0 1 512,607.90479 3.0952122,3.0952122 0 0 1 515.09521,611 Z" />
      <path
         id="path128591"
         style="fill:none;fill-rule:evenodd;stroke:#fdfdfd;stroke-width:2.5;stroke-linecap:butt;stroke-linejoin:miter;stroke-miterlimit:4;stroke-dasharray:none;stroke-opacity:1"
         d="M 527.24595,644 H 512 m 0,0 h -15.24595 m 18.34116,0 A 3.0952122,3.0952122 0 0 1 512,647.09521 3.0952122,3.0952122 0 0 1 508.90479,644 3.0952122,3.0952122 0 0 1 512,640.90479 3.0952122,3.0952122 0 0 1 515.09521,644 Z" />
      <path
         id="path128593"
         style="fill:none;fill-rule:evenodd;stroke:#fdfdfd;stroke-width:2.5;stroke-linecap:butt;stroke-linejoin:miter;stroke-miterlimit:4;stroke-dasharray:none;stroke-opacity:1"
         d="M 527.24595,677 H 512 m 0,0 h -15.24595 m 18.34116,0 A 3.0952122,3.0952122 0 0 1 512,680.09521 3.0952122,3.0952122 0 0 1 508.90479,677 3.0952122,3.0952122 0 0 1 512,673.90479 3.0952122,3.0952122 0 0 1 515.09521,677 Z" />
    </g>
    <circle
       style="opacity:1;fill:url(#radialGradient133229);fill-opacity:1;fill-rule:evenodd;stroke:none;stroke-width:4;stroke-linecap:round;stroke-linejoin:round;stroke-miterlimit:4;stroke-dasharray:none;stroke-opacity:1"
       id="path132624"
       cx="512"
       cy="512"
       r="290.1434" />
  </g>
</svg>
